<svg width="189" height="69" viewBox="0 0 189 69" fill="none" xmlns="http://www.w3.org/2000/svg">
<g id="Logo">
<g id="Group 1000002143">
<g id="Group 1000002141">
<path id="Vector" d="M82.0901 29.6014L117.729 69.0001H106.345L76.5455 37.7802H76.2059L71.5939 44.2051H60.04L70.6197 29.6014L60.04 14.9946H71.5939L76.2476 21.4637H76.5009L81.1993 14.9946H92.5833L82.0871 29.6014H82.0901Z" fill="white"/>
<path id="Vector_2" d="M107.28 33.4411L94.3291 14.9976H106.348L112.062 24.4279H112.402L118.116 14.9976H130.135L117.184 33.4411V44.2081H107.28V33.4411Z" fill="#FD2D5E"/>
<path id="Vector_3" d="M142.15 22.674V25.7205H158.4V33.4411H142.15V36.5287H158.4V44.2081H132.247V14.9976H158.4V22.677H142.15V22.674Z" fill="#FD2D5E"/>
<path id="Vector_4" d="M156.57 36.4875H177.149C178.46 36.4875 179.094 35.9029 179.094 34.9423C179.094 33.9816 178.46 33.4411 177.104 33.4411H170.079C165.127 33.4411 161.108 30.1037 161.108 24.2193C161.108 17.4594 165.806 14.9976 170.546 14.9976H188.068V22.7181H172.96C171.816 22.7181 171.014 23.1353 171.014 24.1782C171.014 25.2211 171.819 25.7235 172.96 25.7235H179.562C185.232 25.7235 189 29.0197 189 34.9041C189 40.4536 184.77 44.211 179.267 44.211H156.445L156.573 36.4905L156.57 36.4875Z" fill="#FD2D5E"/>
</g>
<g id="Group 1000002142">
<path id="Vector_5" d="M30.0115 0C32.4992 2.42662 35.1032 4.912 37.6386 7.45613C39.894 9.71823 41.8007 12.1742 41.5624 15.6203C41.3032 19.3601 37.5582 21.8631 34.0932 20.4559C33.1279 20.0652 32.392 19.1045 31.5816 18.37C31.3731 18.1791 31.2807 17.8618 31.0543 17.6444C30.807 20.2532 31.8736 22.3155 34.1051 24.1693H26.0192C28.1315 22.3302 29.3173 20.3031 29.082 17.5445C28.9002 17.7414 28.7512 17.8324 28.7036 17.9617C27.8872 20.1298 25.2297 21.1081 23.4778 20.8672C21.1271 20.544 19.1429 18.752 18.6453 16.5016C18.2312 14.6302 18.4576 12.7912 19.5362 11.24C20.6921 9.57134 22.0448 8.01431 23.451 6.5366C25.6259 4.25099 27.92 2.07115 30.0085 0L30.0115 0Z" fill="white"/>
<path id="Vector_6" d="M30.0291 59.2025C27.5413 56.7758 24.9374 54.2905 22.402 51.7463C20.1466 49.4842 18.2398 47.0282 18.4782 43.5822C18.7374 39.8424 22.4824 37.3394 25.9474 38.7466C26.9127 39.1373 27.6486 40.098 28.459 40.8324C28.6675 41.0234 28.7599 41.3407 28.9863 41.5581C29.2336 38.9493 28.167 36.887 25.9355 35.0332H34.0214C31.909 36.8723 30.7232 38.8993 30.9586 41.6579C31.1404 41.4611 31.2893 41.37 31.337 41.2408C32.1533 39.0727 34.8109 38.0944 36.5627 38.3353C38.9134 38.6584 40.8977 40.4505 41.3952 42.7009C41.8093 44.5722 41.5829 46.4113 40.5044 47.9624C39.3484 49.6311 37.9958 51.1882 36.5896 52.6659C34.4146 54.9515 32.1206 57.1313 30.032 59.2025H30.0291Z" fill="white"/>
<path id="Vector_7" d="M0 29.5925C2.46093 32.0456 4.98145 34.6132 7.56155 37.1133C9.85563 39.3372 12.3464 41.2174 15.8411 40.9824C19.6338 40.7268 22.1722 37.034 20.7451 33.6173C20.3488 32.6655 19.3746 31.9398 18.6298 31.1407C18.4361 30.9351 18.1143 30.844 17.8939 30.6208C20.5395 30.3769 22.631 31.4286 24.511 33.6291V25.6559C22.6459 27.7388 20.5902 28.908 17.7926 28.6759C17.9922 28.4967 18.0846 28.3498 18.2156 28.3028C20.4144 27.4979 21.4065 24.8774 21.1622 23.1499C20.8345 20.832 19.0171 18.8754 16.7349 18.3848C14.8371 17.9765 12.972 18.1997 11.3989 19.2632C9.70667 20.4031 8.12762 21.7369 6.62902 23.1235C4.3111 25.2681 2.10043 27.5302 0 29.5896L0 29.5925Z" fill="#FD2D5E"/>
<path id="Vector_8" d="M60.0393 29.6099C57.5784 27.1569 55.0578 24.5892 52.4777 22.0892C50.1837 19.8653 47.6929 17.9851 44.1982 18.2201C40.4055 18.4757 37.8671 22.1685 39.2942 25.5852C39.6904 26.537 40.6647 27.2626 41.4095 28.0617C41.6032 28.2674 41.925 28.3584 42.1454 28.5817C39.4998 28.8255 37.4083 27.7738 35.5283 25.5734V33.5466C37.3934 31.4637 39.4491 30.2944 42.2467 30.5265C42.0471 30.7057 41.9547 30.8526 41.8237 30.8996C39.6249 31.7046 38.6328 34.3251 38.8771 36.0525C39.2048 38.3704 41.0222 40.327 43.3044 40.8176C45.2022 41.226 47.0673 41.0027 48.6404 39.9392C50.3326 38.7994 51.9117 37.4656 53.4103 36.079C55.7282 33.9344 57.9389 31.6723 60.0393 29.6129V29.6099Z" fill="#FD2D5E"/>
</g>
</g>
</g>
</svg>
